<svg xmlns="http://www.w3.org/2000/svg" viewBox="0 0 800 300" width="800" height="300" style="font-family:sans-serif;background:#ffffff">
  <!-- background -->
  <rect width="800" height="300" fill="#ffffff"/>
  <!-- grid -->
  <line x1="60" y1="250.0" x2="780" y2="250.0" stroke="#e0e0e0" stroke-width="1"/><text x="54" y="250.0" text-anchor="end" dominant-baseline="middle" font-size="11" fill="#333333">773</text><line x1="60" y1="192.5" x2="780" y2="192.5" stroke="#e0e0e0" stroke-width="1"/><text x="54" y="192.5" text-anchor="end" dominant-baseline="middle" font-size="11" fill="#333333">801</text><line x1="60" y1="135.0" x2="780" y2="135.0" stroke="#e0e0e0" stroke-width="1"/><text x="54" y="135.0" text-anchor="end" dominant-baseline="middle" font-size="11" fill="#333333">830</text><line x1="60" y1="77.5" x2="780" y2="77.5" stroke="#e0e0e0" stroke-width="1"/><text x="54" y="77.5" text-anchor="end" dominant-baseline="middle" font-size="11" fill="#333333">859</text><line x1="60" y1="20.0" x2="780" y2="20.0" stroke="#e0e0e0" stroke-width="1"/><text x="54" y="20.0" text-anchor="end" dominant-baseline="middle" font-size="11" fill="#333333">888</text>
  <!-- filled area -->
  <polygon points="60.0,250.0 60.0,246.0 120.0,250.0 180.0,200.0 240.0,176.0 300.0,96.0 360.0,68.0 420.0,70.0 480.0,68.0 540.0,56.0 600.0,64.0 660.0,64.0 720.0,46.0 780.0,20.0 780.0,250.0" fill="#2196F3" fill-opacity="0.12"/>
  <!-- line -->
  <polyline points="60.0,246.0 120.0,250.0 180.0,200.0 240.0,176.0 300.0,96.0 360.0,68.0 420.0,70.0 480.0,68.0 540.0,56.0 600.0,64.0 660.0,64.0 720.0,46.0 780.0,20.0" fill="none" stroke="#2196F3" stroke-width="2.5" stroke-linejoin="round" stroke-linecap="round"/>
  <!-- dots -->
  <circle cx="60.0" cy="246.0" r="3.5" fill="#1565C0"/><circle cx="120.0" cy="250.0" r="3.5" fill="#1565C0"/><circle cx="180.0" cy="200.0" r="3.5" fill="#1565C0"/><circle cx="240.0" cy="176.0" r="3.5" fill="#1565C0"/><circle cx="300.0" cy="96.0" r="3.5" fill="#1565C0"/><circle cx="360.0" cy="68.0" r="3.5" fill="#1565C0"/><circle cx="420.0" cy="70.0" r="3.5" fill="#1565C0"/><circle cx="480.0" cy="68.0" r="3.5" fill="#1565C0"/><circle cx="540.0" cy="56.0" r="3.5" fill="#1565C0"/><circle cx="600.0" cy="64.0" r="3.5" fill="#1565C0"/><circle cx="660.0" cy="64.0" r="3.5" fill="#1565C0"/><circle cx="720.0" cy="46.0" r="3.5" fill="#1565C0"/><circle cx="780.0" cy="20.0" r="3.5" fill="#1565C0"/>
  <!-- x labels -->
  <text x="60.0" y="270" text-anchor="middle" font-size="11" fill="#333333">2026-04-23</text><text x="420.0" y="270" text-anchor="middle" font-size="11" fill="#333333">2026-04-29</text><text x="780.0" y="270" text-anchor="middle" font-size="11" fill="#333333">2026-05-05</text>
  <!-- axes -->
  <line x1="60" y1="20" x2="60" y2="250" stroke="#555555" stroke-width="1.5"/>
  <line x1="60" y1="250" x2="780" y2="250" stroke="#555555" stroke-width="1.5"/>
  <!-- title -->
  <text x="400" y="14" text-anchor="middle" font-size="13" fill="#333333" font-weight="bold">Followers – last 30 days</text>
</svg>