<svg xmlns="http://www.w3.org/2000/svg" viewBox="0 0 800 300" width="800" height="300" style="font-family:sans-serif;background:#ffffff">
  <!-- background -->
  <rect width="800" height="300" fill="#ffffff"/>
  <!-- grid -->
  <line x1="60" y1="250.0" x2="780" y2="250.0" stroke="#e0e0e0" stroke-width="1"/><text x="54" y="250.0" text-anchor="end" dominant-baseline="middle" font-size="11" fill="#333333">773</text><line x1="60" y1="192.5" x2="780" y2="192.5" stroke="#e0e0e0" stroke-width="1"/><text x="54" y="192.5" text-anchor="end" dominant-baseline="middle" font-size="11" fill="#333333">798</text><line x1="60" y1="135.0" x2="780" y2="135.0" stroke="#e0e0e0" stroke-width="1"/><text x="54" y="135.0" text-anchor="end" dominant-baseline="middle" font-size="11" fill="#333333">824</text><line x1="60" y1="77.5" x2="780" y2="77.5" stroke="#e0e0e0" stroke-width="1"/><text x="54" y="77.5" text-anchor="end" dominant-baseline="middle" font-size="11" fill="#333333">849</text><line x1="60" y1="20.0" x2="780" y2="20.0" stroke="#e0e0e0" stroke-width="1"/><text x="54" y="20.0" text-anchor="end" dominant-baseline="middle" font-size="11" fill="#333333">875</text>
  <!-- filled area -->
  <polygon points="60.0,250.0 60.0,245.5 125.5,250.0 190.9,193.6 256.4,166.6 321.8,76.4 387.3,44.8 452.7,47.1 518.2,44.8 583.6,31.3 649.1,40.3 714.5,40.3 780.0,20.0 780.0,250.0" fill="#2196F3" fill-opacity="0.12"/>
  <!-- line -->
  <polyline points="60.0,245.5 125.5,250.0 190.9,193.6 256.4,166.6 321.8,76.4 387.3,44.8 452.7,47.1 518.2,44.8 583.6,31.3 649.1,40.3 714.5,40.3 780.0,20.0" fill="none" stroke="#2196F3" stroke-width="2.5" stroke-linejoin="round" stroke-linecap="round"/>
  <!-- dots -->
  <circle cx="60.0" cy="245.5" r="3.5" fill="#1565C0"/><circle cx="125.5" cy="250.0" r="3.5" fill="#1565C0"/><circle cx="190.9" cy="193.6" r="3.5" fill="#1565C0"/><circle cx="256.4" cy="166.6" r="3.5" fill="#1565C0"/><circle cx="321.8" cy="76.4" r="3.5" fill="#1565C0"/><circle cx="387.3" cy="44.8" r="3.5" fill="#1565C0"/><circle cx="452.7" cy="47.1" r="3.5" fill="#1565C0"/><circle cx="518.2" cy="44.8" r="3.5" fill="#1565C0"/><circle cx="583.6" cy="31.3" r="3.5" fill="#1565C0"/><circle cx="649.1" cy="40.3" r="3.5" fill="#1565C0"/><circle cx="714.5" cy="40.3" r="3.5" fill="#1565C0"/><circle cx="780.0" cy="20.0" r="3.5" fill="#1565C0"/>
  <!-- x labels -->
  <text x="60.0" y="270" text-anchor="middle" font-size="11" fill="#333333">2026-04-23</text><text x="452.7" y="270" text-anchor="middle" font-size="11" fill="#333333">2026-04-29</text><text x="780.0" y="270" text-anchor="middle" font-size="11" fill="#333333">2026-05-04</text>
  <!-- axes -->
  <line x1="60" y1="20" x2="60" y2="250" stroke="#555555" stroke-width="1.5"/>
  <line x1="60" y1="250" x2="780" y2="250" stroke="#555555" stroke-width="1.5"/>
  <!-- title -->
  <text x="400" y="14" text-anchor="middle" font-size="13" fill="#333333" font-weight="bold">Followers – last 30 days</text>
</svg>