<svg xmlns="http://www.w3.org/2000/svg" viewBox="0 0 800 300" width="800" height="300" style="font-family:sans-serif;background:#ffffff">
  <!-- background -->
  <rect width="800" height="300" fill="#ffffff"/>
  <!-- grid -->
  <line x1="60" y1="250.0" x2="780" y2="250.0" stroke="#e0e0e0" stroke-width="1"/><text x="54" y="250.0" text-anchor="end" dominant-baseline="middle" font-size="11" fill="#333333">773</text><line x1="60" y1="192.5" x2="780" y2="192.5" stroke="#e0e0e0" stroke-width="1"/><text x="54" y="192.5" text-anchor="end" dominant-baseline="middle" font-size="11" fill="#333333">797</text><line x1="60" y1="135.0" x2="780" y2="135.0" stroke="#e0e0e0" stroke-width="1"/><text x="54" y="135.0" text-anchor="end" dominant-baseline="middle" font-size="11" fill="#333333">821</text><line x1="60" y1="77.5" x2="780" y2="77.5" stroke="#e0e0e0" stroke-width="1"/><text x="54" y="77.5" text-anchor="end" dominant-baseline="middle" font-size="11" fill="#333333">845</text><line x1="60" y1="20.0" x2="780" y2="20.0" stroke="#e0e0e0" stroke-width="1"/><text x="54" y="20.0" text-anchor="end" dominant-baseline="middle" font-size="11" fill="#333333">870</text>
  <!-- filled area -->
  <polygon points="60.0,250.0 60.0,245.3 132.0,250.0 204.0,190.7 276.0,162.3 348.0,67.4 420.0,34.2 492.0,36.6 564.0,34.2 636.0,20.0 708.0,29.5 780.0,29.5 780.0,250.0" fill="#2196F3" fill-opacity="0.12"/>
  <!-- line -->
  <polyline points="60.0,245.3 132.0,250.0 204.0,190.7 276.0,162.3 348.0,67.4 420.0,34.2 492.0,36.6 564.0,34.2 636.0,20.0 708.0,29.5 780.0,29.5" fill="none" stroke="#2196F3" stroke-width="2.5" stroke-linejoin="round" stroke-linecap="round"/>
  <!-- dots -->
  <circle cx="60.0" cy="245.3" r="3.5" fill="#1565C0"/><circle cx="132.0" cy="250.0" r="3.5" fill="#1565C0"/><circle cx="204.0" cy="190.7" r="3.5" fill="#1565C0"/><circle cx="276.0" cy="162.3" r="3.5" fill="#1565C0"/><circle cx="348.0" cy="67.4" r="3.5" fill="#1565C0"/><circle cx="420.0" cy="34.2" r="3.5" fill="#1565C0"/><circle cx="492.0" cy="36.6" r="3.5" fill="#1565C0"/><circle cx="564.0" cy="34.2" r="3.5" fill="#1565C0"/><circle cx="636.0" cy="20.0" r="3.5" fill="#1565C0"/><circle cx="708.0" cy="29.5" r="3.5" fill="#1565C0"/><circle cx="780.0" cy="29.5" r="3.5" fill="#1565C0"/>
  <!-- x labels -->
  <text x="60.0" y="270" text-anchor="middle" font-size="11" fill="#333333">2026-04-23</text><text x="420.0" y="270" text-anchor="middle" font-size="11" fill="#333333">2026-04-28</text><text x="780.0" y="270" text-anchor="middle" font-size="11" fill="#333333">2026-05-03</text>
  <!-- axes -->
  <line x1="60" y1="20" x2="60" y2="250" stroke="#555555" stroke-width="1.5"/>
  <line x1="60" y1="250" x2="780" y2="250" stroke="#555555" stroke-width="1.5"/>
  <!-- title -->
  <text x="400" y="14" text-anchor="middle" font-size="13" fill="#333333" font-weight="bold">Followers – last 30 days</text>
</svg>