<svg xmlns="http://www.w3.org/2000/svg" viewBox="0 0 800 300" width="800" height="300" style="font-family:sans-serif;background:#ffffff">
  <!-- background -->
  <rect width="800" height="300" fill="#ffffff"/>
  <!-- grid -->
  <line x1="60" y1="250.0" x2="780" y2="250.0" stroke="#e0e0e0" stroke-width="1"/><text x="54" y="250.0" text-anchor="end" dominant-baseline="middle" font-size="11" fill="#333333">773</text><line x1="60" y1="192.5" x2="780" y2="192.5" stroke="#e0e0e0" stroke-width="1"/><text x="54" y="192.5" text-anchor="end" dominant-baseline="middle" font-size="11" fill="#333333">795</text><line x1="60" y1="135.0" x2="780" y2="135.0" stroke="#e0e0e0" stroke-width="1"/><text x="54" y="135.0" text-anchor="end" dominant-baseline="middle" font-size="11" fill="#333333">818</text><line x1="60" y1="77.5" x2="780" y2="77.5" stroke="#e0e0e0" stroke-width="1"/><text x="54" y="77.5" text-anchor="end" dominant-baseline="middle" font-size="11" fill="#333333">841</text><line x1="60" y1="20.0" x2="780" y2="20.0" stroke="#e0e0e0" stroke-width="1"/><text x="54" y="20.0" text-anchor="end" dominant-baseline="middle" font-size="11" fill="#333333">864</text>
  <!-- filled area -->
  <polygon points="60.0,250.0 60.0,244.9 204.0,250.0 348.0,186.8 492.0,156.5 636.0,55.4 780.0,20.0 780.0,250.0" fill="#2196F3" fill-opacity="0.12"/>
  <!-- line -->
  <polyline points="60.0,244.9 204.0,250.0 348.0,186.8 492.0,156.5 636.0,55.4 780.0,20.0" fill="none" stroke="#2196F3" stroke-width="2.5" stroke-linejoin="round" stroke-linecap="round"/>
  <!-- dots -->
  <circle cx="60.0" cy="244.9" r="3.5" fill="#1565C0"/><circle cx="204.0" cy="250.0" r="3.5" fill="#1565C0"/><circle cx="348.0" cy="186.8" r="3.5" fill="#1565C0"/><circle cx="492.0" cy="156.5" r="3.5" fill="#1565C0"/><circle cx="636.0" cy="55.4" r="3.5" fill="#1565C0"/><circle cx="780.0" cy="20.0" r="3.5" fill="#1565C0"/>
  <!-- x labels -->
  <text x="60.0" y="270" text-anchor="middle" font-size="11" fill="#333333">2026-04-23</text><text x="492.0" y="270" text-anchor="middle" font-size="11" fill="#333333">2026-04-26</text><text x="780.0" y="270" text-anchor="middle" font-size="11" fill="#333333">2026-04-28</text>
  <!-- axes -->
  <line x1="60" y1="20" x2="60" y2="250" stroke="#555555" stroke-width="1.5"/>
  <line x1="60" y1="250" x2="780" y2="250" stroke="#555555" stroke-width="1.5"/>
  <!-- title -->
  <text x="400" y="14" text-anchor="middle" font-size="13" fill="#333333" font-weight="bold">Followers – last 30 days</text>
</svg>